<svg xmlns="http://www.w3.org/2000/svg" viewBox="0 0 640 640" role="img" aria-label="Cartoon baseball field">
  <defs>
    <linearGradient id="grass" x1="0" x2="1" y1="0" y2="1">
      <stop offset="0" stop-color="#3fa463"/>
      <stop offset="1" stop-color="#1d6f43"/>
    </linearGradient>
    <linearGradient id="dirt" x1="0" x2="1" y1="0" y2="1">
      <stop offset="0" stop-color="#d59a55"/>
      <stop offset="1" stop-color="#a9652e"/>
    </linearGradient>
    <filter id="shadow" x="-20%" y="-20%" width="140%" height="140%">
      <feDropShadow dx="0" dy="10" stdDeviation="8" flood-color="#071d3a" flood-opacity="0.22"/>
    </filter>
  </defs>
  <rect width="640" height="640" rx="34" fill="url(#grass)"/>
  <path d="M70 570 L320 94 L570 570 Z" fill="#2b8750" stroke="rgba(255,255,255,.18)" stroke-width="8"/>
  <path d="M82 558 L320 108 L558 558" fill="none" stroke="#f7fafc" stroke-width="8" stroke-linecap="round"/>
  <path d="M168 472 L320 320 L472 472 L320 608 Z" fill="url(#dirt)" stroke="#f8fbff" stroke-width="8" filter="url(#shadow)"/>
  <circle cx="320" cy="320" r="52" fill="#ba7436" stroke="#f8fbff" stroke-width="7"/>
  <rect x="292" y="310" width="56" height="13" rx="7" fill="#fff"/>
  <g fill="#fff" stroke="#d7a43b" stroke-width="5" filter="url(#shadow)">
    <rect x="447" y="447" width="48" height="48" rx="5" transform="rotate(45 471 471)"/>
    <rect x="296" y="296" width="48" height="48" rx="5" transform="rotate(45 320 320)"/>
    <rect x="145" y="447" width="48" height="48" rx="5" transform="rotate(45 169 471)"/>
    <path d="M286 576 H354 V612 L320 636 L286 612 Z"/>
  </g>
  <path d="M114 526 Q320 390 526 526" fill="none" stroke="#f5efe4" stroke-width="5" stroke-dasharray="12 12" opacity=".72"/>
</svg>
